<?xml version="1.0" encoding="UTF-8" standalone="no"?>
<!DOCTYPE svg PUBLIC "-//W3C//DTD SVG 1.1//EN"
 "http://www.w3.org/Graphics/SVG/1.1/DTD/svg11.dtd">
<!-- Generated by graphviz version 5.0.0 (20220707.1540)
 -->
<!-- Title: dependencies Pages: 1 -->
<svg width="1996pt" height="247pt"
 viewBox="0.00 0.00 1996.00 246.80" xmlns="http://www.w3.org/2000/svg" xmlns:xlink="http://www.w3.org/1999/xlink">
<g id="graph0" class="graph" transform="scale(1 1) rotate(0) translate(4 242.8)">
<title>dependencies</title>
<polygon fill="white" stroke="transparent" points="-4,4 -4,-242.8 1992,-242.8 1992,4 -4,4"/>
<text text-anchor="middle" x="994" y="-8.2" font-family="sans-serif" font-size="14.00">dependencies</text>
<g id="clust1" class="cluster">
<title>cluster_AppModule</title>
<polygon fill="none" stroke="black" stroke-dasharray="1,5" points="8,-32.8 8,-230.8 1980,-230.8 1980,-32.8 8,-32.8"/>
</g>
<g id="clust15" class="cluster">
<title>cluster_AppModule_imports</title>
<polygon fill="none" stroke="black" points="1828,-40.8 1828,-92.8 1972,-92.8 1972,-40.8 1828,-40.8"/>
</g>
<g id="clust17" class="cluster">
<title>cluster_AppModule_bootstrap</title>
<polygon fill="none" stroke="black" points="1009,-170.8 1009,-222.8 1133,-222.8 1133,-170.8 1009,-170.8"/>
</g>
<g id="clust2" class="cluster">
<title>cluster_AppModule_declarations</title>
<polygon fill="none" stroke="black" points="16,-40.8 16,-92.8 1820,-92.8 1820,-40.8 16,-40.8"/>
</g>
<!-- AppComponent -->
<g id="node1" class="node">
<title>AppComponent</title>
<polygon fill="#ffffb3" stroke="black" points="1811.94,-84.8 1706.06,-84.8 1706.06,-48.8 1811.94,-48.8 1811.94,-84.8"/>
<text text-anchor="middle" x="1759" y="-62.6" font-family="Times,serif" font-size="14.00">AppComponent</text>
</g>
<!-- AppModule -->
<g id="node13" class="node">
<title>AppModule</title>
<polygon fill="#8dd3c7" stroke="black" points="1112.66,-149.8 1109.66,-153.8 1088.66,-153.8 1085.66,-149.8 1029.34,-149.8 1029.34,-113.8 1112.66,-113.8 1112.66,-149.8"/>
<text text-anchor="middle" x="1071" y="-127.6" font-family="Times,serif" font-size="14.00">AppModule</text>
</g>
<!-- AppComponent&#45;&gt;AppModule -->
<g id="edge1" class="edge">
<title>AppComponent&#45;&gt;AppModule</title>
<path fill="none" stroke="black" d="M1759,-84.84C1759,-106.46 1759,-139.8 1759,-139.8 1759,-139.8 1122.74,-139.8 1122.74,-139.8"/>
<polygon fill="black" stroke="black" points="1122.74,-136.3 1112.74,-139.8 1122.74,-143.3 1122.74,-136.3"/>
</g>
<!-- EditUserComponent -->
<g id="node2" class="node">
<title>EditUserComponent</title>
<polygon fill="#ffffb3" stroke="black" points="1688.6,-84.8 1557.4,-84.8 1557.4,-48.8 1688.6,-48.8 1688.6,-84.8"/>
<text text-anchor="middle" x="1623" y="-62.6" font-family="Times,serif" font-size="14.00">EditUserComponent</text>
</g>
<!-- EditUserComponent&#45;&gt;AppModule -->
<g id="edge2" class="edge">
<title>EditUserComponent&#45;&gt;AppModule</title>
<path fill="none" stroke="black" d="M1623,-85.02C1623,-105.17 1623,-134.8 1623,-134.8 1623,-134.8 1122.94,-134.8 1122.94,-134.8"/>
<polygon fill="black" stroke="black" points="1122.94,-131.3 1112.94,-134.8 1122.94,-138.3 1122.94,-131.3"/>
</g>
<!-- HeaderComponent -->
<g id="node3" class="node">
<title>HeaderComponent</title>
<polygon fill="#ffffb3" stroke="black" points="1539.75,-84.8 1418.25,-84.8 1418.25,-48.8 1539.75,-48.8 1539.75,-84.8"/>
<text text-anchor="middle" x="1479" y="-62.6" font-family="Times,serif" font-size="14.00">HeaderComponent</text>
</g>
<!-- HeaderComponent&#45;&gt;AppModule -->
<g id="edge3" class="edge">
<title>HeaderComponent&#45;&gt;AppModule</title>
<path fill="none" stroke="black" d="M1479,-85.02C1479,-103.63 1479,-129.8 1479,-129.8 1479,-129.8 1122.75,-129.8 1122.75,-129.8"/>
<polygon fill="black" stroke="black" points="1122.75,-126.3 1112.75,-129.8 1122.75,-133.3 1122.75,-126.3"/>
</g>
<!-- HomeComponent -->
<g id="node4" class="node">
<title>HomeComponent</title>
<polygon fill="#ffffb3" stroke="black" points="1399.55,-84.8 1284.45,-84.8 1284.45,-48.8 1399.55,-48.8 1399.55,-84.8"/>
<text text-anchor="middle" x="1342" y="-62.6" font-family="Times,serif" font-size="14.00">HomeComponent</text>
</g>
<!-- HomeComponent&#45;&gt;AppModule -->
<g id="edge4" class="edge">
<title>HomeComponent&#45;&gt;AppModule</title>
<path fill="none" stroke="black" d="M1342,-84.83C1342,-101.86 1342,-124.8 1342,-124.8 1342,-124.8 1122.75,-124.8 1122.75,-124.8"/>
<polygon fill="black" stroke="black" points="1122.75,-121.3 1112.75,-124.8 1122.75,-128.3 1122.75,-121.3"/>
</g>
<!-- LoginComponent -->
<g id="node5" class="node">
<title>LoginComponent</title>
<polygon fill="#ffffb3" stroke="black" points="1266.27,-84.8 1151.73,-84.8 1151.73,-48.8 1266.27,-48.8 1266.27,-84.8"/>
<text text-anchor="middle" x="1209" y="-62.6" font-family="Times,serif" font-size="14.00">LoginComponent</text>
</g>
<!-- LoginComponent&#45;&gt;AppModule -->
<g id="edge5" class="edge">
<title>LoginComponent&#45;&gt;AppModule</title>
<path fill="none" stroke="black" d="M1209,-85.04C1209,-100.37 1209,-119.8 1209,-119.8 1209,-119.8 1122.78,-119.8 1122.78,-119.8"/>
<polygon fill="black" stroke="black" points="1122.78,-116.3 1112.78,-119.8 1122.78,-123.3 1122.78,-116.3"/>
</g>
<!-- NavBarComponent -->
<g id="node6" class="node">
<title>NavBarComponent</title>
<polygon fill="#ffffb3" stroke="black" points="1133.37,-84.8 1008.63,-84.8 1008.63,-48.8 1133.37,-48.8 1133.37,-84.8"/>
<text text-anchor="middle" x="1071" y="-62.6" font-family="Times,serif" font-size="14.00">NavBarComponent</text>
</g>
<!-- NavBarComponent&#45;&gt;AppModule -->
<g id="edge6" class="edge">
<title>NavBarComponent&#45;&gt;AppModule</title>
<path fill="none" stroke="black" d="M1071,-84.91C1071,-84.91 1071,-103.79 1071,-103.79"/>
<polygon fill="black" stroke="black" points="1067.5,-103.79 1071,-113.79 1074.5,-103.79 1067.5,-103.79"/>
</g>
<!-- NoAuthComponent -->
<g id="node7" class="node">
<title>NoAuthComponent</title>
<polygon fill="#ffffb3" stroke="black" points="990.44,-84.8 863.56,-84.8 863.56,-48.8 990.44,-48.8 990.44,-84.8"/>
<text text-anchor="middle" x="927" y="-62.6" font-family="Times,serif" font-size="14.00">NoAuthComponent</text>
</g>
<!-- NoAuthComponent&#45;&gt;AppModule -->
<g id="edge7" class="edge">
<title>NoAuthComponent&#45;&gt;AppModule</title>
<path fill="none" stroke="black" d="M927,-85.04C927,-100.37 927,-119.8 927,-119.8 927,-119.8 1018.96,-119.8 1018.96,-119.8"/>
<polygon fill="black" stroke="black" points="1018.96,-123.3 1028.96,-119.8 1018.96,-116.3 1018.96,-123.3"/>
</g>
<!-- Page404Component -->
<g id="node8" class="node">
<title>Page404Component</title>
<polygon fill="#ffffb3" stroke="black" points="845.55,-84.8 716.45,-84.8 716.45,-48.8 845.55,-48.8 845.55,-84.8"/>
<text text-anchor="middle" x="781" y="-62.6" font-family="Times,serif" font-size="14.00">Page404Component</text>
</g>
<!-- Page404Component&#45;&gt;AppModule -->
<g id="edge8" class="edge">
<title>Page404Component&#45;&gt;AppModule</title>
<path fill="none" stroke="black" d="M781,-84.83C781,-101.86 781,-124.8 781,-124.8 781,-124.8 1019.14,-124.8 1019.14,-124.8"/>
<polygon fill="black" stroke="black" points="1019.14,-128.3 1029.14,-124.8 1019.14,-121.3 1019.14,-128.3"/>
</g>
<!-- ProfileComponent -->
<g id="node9" class="node">
<title>ProfileComponent</title>
<polygon fill="#ffffb3" stroke="black" points="698.94,-84.8 579.06,-84.8 579.06,-48.8 698.94,-48.8 698.94,-84.8"/>
<text text-anchor="middle" x="639" y="-62.6" font-family="Times,serif" font-size="14.00">ProfileComponent</text>
</g>
<!-- ProfileComponent&#45;&gt;AppModule -->
<g id="edge9" class="edge">
<title>ProfileComponent&#45;&gt;AppModule</title>
<path fill="none" stroke="black" d="M639,-85.02C639,-103.63 639,-129.8 639,-129.8 639,-129.8 1019.19,-129.8 1019.19,-129.8"/>
<polygon fill="black" stroke="black" points="1019.19,-133.3 1029.19,-129.8 1019.19,-126.3 1019.19,-133.3"/>
</g>
<!-- SearchDocumentsComponent -->
<g id="node10" class="node">
<title>SearchDocumentsComponent</title>
<polygon fill="#ffffb3" stroke="black" points="561.69,-84.8 378.31,-84.8 378.31,-48.8 561.69,-48.8 561.69,-84.8"/>
<text text-anchor="middle" x="470" y="-62.6" font-family="Times,serif" font-size="14.00">SearchDocumentsComponent</text>
</g>
<!-- SearchDocumentsComponent&#45;&gt;AppModule -->
<g id="edge10" class="edge">
<title>SearchDocumentsComponent&#45;&gt;AppModule</title>
<path fill="none" stroke="black" d="M470,-85.02C470,-105.17 470,-134.8 470,-134.8 470,-134.8 1019.22,-134.8 1019.22,-134.8"/>
<polygon fill="black" stroke="black" points="1019.22,-138.3 1029.22,-134.8 1019.22,-131.3 1019.22,-138.3"/>
</g>
<!-- StatisticsComponent -->
<g id="node11" class="node">
<title>StatisticsComponent</title>
<polygon fill="#ffffb3" stroke="black" points="359.89,-84.8 228.11,-84.8 228.11,-48.8 359.89,-48.8 359.89,-84.8"/>
<text text-anchor="middle" x="294" y="-62.6" font-family="Times,serif" font-size="14.00">StatisticsComponent</text>
</g>
<!-- StatisticsComponent&#45;&gt;AppModule -->
<g id="edge11" class="edge">
<title>StatisticsComponent&#45;&gt;AppModule</title>
<path fill="none" stroke="black" d="M294,-84.84C294,-106.46 294,-139.8 294,-139.8 294,-139.8 1019.23,-139.8 1019.23,-139.8"/>
<polygon fill="black" stroke="black" points="1019.23,-143.3 1029.23,-139.8 1019.23,-136.3 1019.23,-143.3"/>
</g>
<!-- UsersManagementComponent -->
<g id="node12" class="node">
<title>UsersManagementComponent</title>
<polygon fill="#ffffb3" stroke="black" points="210.3,-84.8 23.7,-84.8 23.7,-48.8 210.3,-48.8 210.3,-84.8"/>
<text text-anchor="middle" x="117" y="-62.6" font-family="Times,serif" font-size="14.00">UsersManagementComponent</text>
</g>
<!-- UsersManagementComponent&#45;&gt;AppModule -->
<g id="edge12" class="edge">
<title>UsersManagementComponent&#45;&gt;AppModule</title>
<path fill="none" stroke="black" d="M117,-84.89C117,-107.93 117,-144.8 117,-144.8 117,-144.8 1019.09,-144.8 1019.09,-144.8"/>
<polygon fill="black" stroke="black" points="1019.09,-148.3 1029.09,-144.8 1019.09,-141.3 1019.09,-148.3"/>
</g>
<!-- AppComponent  -->
<g id="node15" class="node">
<title>AppComponent </title>
<polygon fill="#80b1d3" stroke="black" points="1125.44,-214.8 1016.56,-214.8 1016.56,-178.8 1125.44,-178.8 1125.44,-214.8"/>
<text text-anchor="middle" x="1071" y="-192.6" font-family="Times,serif" font-size="14.00">AppComponent </text>
</g>
<!-- AppModule&#45;&gt;AppComponent  -->
<g id="edge14" class="edge">
<title>AppModule&#45;&gt;AppComponent </title>
<path fill="none" stroke="black" stroke-dasharray="1,5" d="M1071,-149.91C1071,-149.91 1071,-168.79 1071,-168.79"/>
<polygon fill="black" stroke="black" points="1067.5,-168.79 1071,-178.79 1074.5,-168.79 1067.5,-168.79"/>
</g>
<!-- AppRoutingModule -->
<g id="node14" class="node">
<title>AppRoutingModule</title>
<polygon fill="#8dd3c7" stroke="black" points="1964.28,-84.8 1961.28,-88.8 1940.28,-88.8 1937.28,-84.8 1835.72,-84.8 1835.72,-48.8 1964.28,-48.8 1964.28,-84.8"/>
<text text-anchor="middle" x="1900" y="-62.6" font-family="Times,serif" font-size="14.00">AppRoutingModule</text>
</g>
<!-- AppRoutingModule&#45;&gt;AppModule -->
<g id="edge13" class="edge">
<title>AppRoutingModule&#45;&gt;AppModule</title>
<path fill="none" stroke="black" d="M1900,-84.89C1900,-107.93 1900,-144.8 1900,-144.8 1900,-144.8 1122.68,-144.8 1122.68,-144.8"/>
<polygon fill="black" stroke="black" points="1122.68,-141.3 1112.68,-144.8 1122.68,-148.3 1122.68,-141.3"/>
</g>
</g>
</svg>
