<?xml version="1.0" encoding="UTF-8" standalone="no"?>
<!DOCTYPE svg PUBLIC "-//W3C//DTD SVG 1.1//EN"
 "http://www.w3.org/Graphics/SVG/1.1/DTD/svg11.dtd">
<!-- Generated by graphviz version 5.0.0 (20220707.1540)
 -->
<!-- Title: dependencies Pages: 1 -->
<svg width="1996pt" height="247pt"
 viewBox="0.00 0.00 1996.00 246.80" xmlns="http://www.w3.org/2000/svg" xmlns:xlink="http://www.w3.org/1999/xlink">
<g id="graph0" class="graph" transform="scale(1 1) rotate(0) translate(4 242.8)">
<title>dependencies</title>
<polygon fill="white" stroke="transparent" points="-4,4 -4,-242.8 1992,-242.8 1992,4 -4,4"/>
<text text-anchor="middle" x="994" y="-8.2" font-family="sans-serif" font-size="14.00">dependencies</text>
<g id="clust1" class="cluster">
<title>cluster_AppModule</title>
<polygon fill="none" stroke="black" stroke-dasharray="1,5" points="8,-32.8 8,-230.8 1980,-230.8 1980,-32.8 8,-32.8"/>
</g>
<g id="clust2" class="cluster">
<title>cluster_AppModule_declarations</title>
<polygon fill="none" stroke="black" points="168,-40.8 168,-92.8 1972,-92.8 1972,-40.8 168,-40.8"/>
</g>
<g id="clust15" class="cluster">
<title>cluster_AppModule_imports</title>
<polygon fill="none" stroke="black" points="16,-40.8 16,-92.8 160,-92.8 160,-40.8 16,-40.8"/>
</g>
<g id="clust17" class="cluster">
<title>cluster_AppModule_bootstrap</title>
<polygon fill="none" stroke="black" points="1017,-170.8 1017,-222.8 1141,-222.8 1141,-170.8 1017,-170.8"/>
</g>
<!-- AppComponent -->
<g id="node1" class="node">
<title>AppComponent</title>
<polygon fill="#ffffb3" stroke="black" points="1963.94,-84.8 1858.06,-84.8 1858.06,-48.8 1963.94,-48.8 1963.94,-84.8"/>
<text text-anchor="middle" x="1911" y="-62.6" font-family="Times,serif" font-size="14.00">AppComponent</text>
</g>
<!-- AppModule -->
<g id="node13" class="node">
<title>AppModule</title>
<polygon fill="#8dd3c7" stroke="black" points="1120.66,-149.8 1117.66,-153.8 1096.66,-153.8 1093.66,-149.8 1037.34,-149.8 1037.34,-113.8 1120.66,-113.8 1120.66,-149.8"/>
<text text-anchor="middle" x="1079" y="-127.6" font-family="Times,serif" font-size="14.00">AppModule</text>
</g>
<!-- AppComponent&#45;&gt;AppModule -->
<g id="edge1" class="edge">
<title>AppComponent&#45;&gt;AppModule</title>
<path fill="none" stroke="black" d="M1911,-84.89C1911,-107.93 1911,-144.8 1911,-144.8 1911,-144.8 1130.83,-144.8 1130.83,-144.8"/>
<polygon fill="black" stroke="black" points="1130.83,-141.3 1120.83,-144.8 1130.83,-148.3 1130.83,-141.3"/>
</g>
<!-- EditUserComponent -->
<g id="node2" class="node">
<title>EditUserComponent</title>
<polygon fill="#ffffb3" stroke="black" points="1840.6,-84.8 1709.4,-84.8 1709.4,-48.8 1840.6,-48.8 1840.6,-84.8"/>
<text text-anchor="middle" x="1775" y="-62.6" font-family="Times,serif" font-size="14.00">EditUserComponent</text>
</g>
<!-- EditUserComponent&#45;&gt;AppModule -->
<g id="edge2" class="edge">
<title>EditUserComponent&#45;&gt;AppModule</title>
<path fill="none" stroke="black" d="M1775,-84.84C1775,-106.46 1775,-139.8 1775,-139.8 1775,-139.8 1130.71,-139.8 1130.71,-139.8"/>
<polygon fill="black" stroke="black" points="1130.71,-136.3 1120.71,-139.8 1130.71,-143.3 1130.71,-136.3"/>
</g>
<!-- HeaderComponent -->
<g id="node3" class="node">
<title>HeaderComponent</title>
<polygon fill="#ffffb3" stroke="black" points="1691.75,-84.8 1570.25,-84.8 1570.25,-48.8 1691.75,-48.8 1691.75,-84.8"/>
<text text-anchor="middle" x="1631" y="-62.6" font-family="Times,serif" font-size="14.00">HeaderComponent</text>
</g>
<!-- HeaderComponent&#45;&gt;AppModule -->
<g id="edge3" class="edge">
<title>HeaderComponent&#45;&gt;AppModule</title>
<path fill="none" stroke="black" d="M1631,-85.02C1631,-105.17 1631,-134.8 1631,-134.8 1631,-134.8 1130.94,-134.8 1130.94,-134.8"/>
<polygon fill="black" stroke="black" points="1130.94,-131.3 1120.94,-134.8 1130.94,-138.3 1130.94,-131.3"/>
</g>
<!-- HomeComponent -->
<g id="node4" class="node">
<title>HomeComponent</title>
<polygon fill="#ffffb3" stroke="black" points="1551.55,-84.8 1436.45,-84.8 1436.45,-48.8 1551.55,-48.8 1551.55,-84.8"/>
<text text-anchor="middle" x="1494" y="-62.6" font-family="Times,serif" font-size="14.00">HomeComponent</text>
</g>
<!-- HomeComponent&#45;&gt;AppModule -->
<g id="edge4" class="edge">
<title>HomeComponent&#45;&gt;AppModule</title>
<path fill="none" stroke="black" d="M1494,-85.02C1494,-103.63 1494,-129.8 1494,-129.8 1494,-129.8 1130.69,-129.8 1130.69,-129.8"/>
<polygon fill="black" stroke="black" points="1130.69,-126.3 1120.69,-129.8 1130.69,-133.3 1130.69,-126.3"/>
</g>
<!-- LoginComponent -->
<g id="node5" class="node">
<title>LoginComponent</title>
<polygon fill="#ffffb3" stroke="black" points="1418.27,-84.8 1303.73,-84.8 1303.73,-48.8 1418.27,-48.8 1418.27,-84.8"/>
<text text-anchor="middle" x="1361" y="-62.6" font-family="Times,serif" font-size="14.00">LoginComponent</text>
</g>
<!-- LoginComponent&#45;&gt;AppModule -->
<g id="edge5" class="edge">
<title>LoginComponent&#45;&gt;AppModule</title>
<path fill="none" stroke="black" d="M1361,-84.83C1361,-101.86 1361,-124.8 1361,-124.8 1361,-124.8 1130.91,-124.8 1130.91,-124.8"/>
<polygon fill="black" stroke="black" points="1130.91,-121.3 1120.91,-124.8 1130.91,-128.3 1130.91,-121.3"/>
</g>
<!-- NavBarComponent -->
<g id="node6" class="node">
<title>NavBarComponent</title>
<polygon fill="#ffffb3" stroke="black" points="1285.37,-84.8 1160.63,-84.8 1160.63,-48.8 1285.37,-48.8 1285.37,-84.8"/>
<text text-anchor="middle" x="1223" y="-62.6" font-family="Times,serif" font-size="14.00">NavBarComponent</text>
</g>
<!-- NavBarComponent&#45;&gt;AppModule -->
<g id="edge6" class="edge">
<title>NavBarComponent&#45;&gt;AppModule</title>
<path fill="none" stroke="black" d="M1223,-85.04C1223,-100.37 1223,-119.8 1223,-119.8 1223,-119.8 1131.04,-119.8 1131.04,-119.8"/>
<polygon fill="black" stroke="black" points="1131.04,-116.3 1121.04,-119.8 1131.04,-123.3 1131.04,-116.3"/>
</g>
<!-- NoAuthComponent -->
<g id="node7" class="node">
<title>NoAuthComponent</title>
<polygon fill="#ffffb3" stroke="black" points="1142.44,-84.8 1015.56,-84.8 1015.56,-48.8 1142.44,-48.8 1142.44,-84.8"/>
<text text-anchor="middle" x="1079" y="-62.6" font-family="Times,serif" font-size="14.00">NoAuthComponent</text>
</g>
<!-- NoAuthComponent&#45;&gt;AppModule -->
<g id="edge7" class="edge">
<title>NoAuthComponent&#45;&gt;AppModule</title>
<path fill="none" stroke="black" d="M1079,-84.91C1079,-84.91 1079,-103.79 1079,-103.79"/>
<polygon fill="black" stroke="black" points="1075.5,-103.79 1079,-113.79 1082.5,-103.79 1075.5,-103.79"/>
</g>
<!-- Page404Component -->
<g id="node8" class="node">
<title>Page404Component</title>
<polygon fill="#ffffb3" stroke="black" points="997.55,-84.8 868.45,-84.8 868.45,-48.8 997.55,-48.8 997.55,-84.8"/>
<text text-anchor="middle" x="933" y="-62.6" font-family="Times,serif" font-size="14.00">Page404Component</text>
</g>
<!-- Page404Component&#45;&gt;AppModule -->
<g id="edge8" class="edge">
<title>Page404Component&#45;&gt;AppModule</title>
<path fill="none" stroke="black" d="M933,-85.04C933,-100.37 933,-119.8 933,-119.8 933,-119.8 1027.16,-119.8 1027.16,-119.8"/>
<polygon fill="black" stroke="black" points="1027.16,-123.3 1037.16,-119.8 1027.16,-116.3 1027.16,-123.3"/>
</g>
<!-- ProfileComponent -->
<g id="node9" class="node">
<title>ProfileComponent</title>
<polygon fill="#ffffb3" stroke="black" points="850.94,-84.8 731.06,-84.8 731.06,-48.8 850.94,-48.8 850.94,-84.8"/>
<text text-anchor="middle" x="791" y="-62.6" font-family="Times,serif" font-size="14.00">ProfileComponent</text>
</g>
<!-- ProfileComponent&#45;&gt;AppModule -->
<g id="edge9" class="edge">
<title>ProfileComponent&#45;&gt;AppModule</title>
<path fill="none" stroke="black" d="M791,-84.83C791,-101.86 791,-124.8 791,-124.8 791,-124.8 1027.12,-124.8 1027.12,-124.8"/>
<polygon fill="black" stroke="black" points="1027.12,-128.3 1037.12,-124.8 1027.12,-121.3 1027.12,-128.3"/>
</g>
<!-- SearchDocumentsComponent -->
<g id="node10" class="node">
<title>SearchDocumentsComponent</title>
<polygon fill="#ffffb3" stroke="black" points="713.69,-84.8 530.31,-84.8 530.31,-48.8 713.69,-48.8 713.69,-84.8"/>
<text text-anchor="middle" x="622" y="-62.6" font-family="Times,serif" font-size="14.00">SearchDocumentsComponent</text>
</g>
<!-- SearchDocumentsComponent&#45;&gt;AppModule -->
<g id="edge10" class="edge">
<title>SearchDocumentsComponent&#45;&gt;AppModule</title>
<path fill="none" stroke="black" d="M622,-85.02C622,-103.63 622,-129.8 622,-129.8 622,-129.8 1027.23,-129.8 1027.23,-129.8"/>
<polygon fill="black" stroke="black" points="1027.23,-133.3 1037.23,-129.8 1027.23,-126.3 1027.23,-133.3"/>
</g>
<!-- StatisticsComponent -->
<g id="node11" class="node">
<title>StatisticsComponent</title>
<polygon fill="#ffffb3" stroke="black" points="511.89,-84.8 380.11,-84.8 380.11,-48.8 511.89,-48.8 511.89,-84.8"/>
<text text-anchor="middle" x="446" y="-62.6" font-family="Times,serif" font-size="14.00">StatisticsComponent</text>
</g>
<!-- StatisticsComponent&#45;&gt;AppModule -->
<g id="edge11" class="edge">
<title>StatisticsComponent&#45;&gt;AppModule</title>
<path fill="none" stroke="black" d="M446,-85.02C446,-105.17 446,-134.8 446,-134.8 446,-134.8 1026.98,-134.8 1026.98,-134.8"/>
<polygon fill="black" stroke="black" points="1026.98,-138.3 1036.98,-134.8 1026.98,-131.3 1026.98,-138.3"/>
</g>
<!-- UsersManagementComponent -->
<g id="node12" class="node">
<title>UsersManagementComponent</title>
<polygon fill="#ffffb3" stroke="black" points="362.3,-84.8 175.7,-84.8 175.7,-48.8 362.3,-48.8 362.3,-84.8"/>
<text text-anchor="middle" x="269" y="-62.6" font-family="Times,serif" font-size="14.00">UsersManagementComponent</text>
</g>
<!-- UsersManagementComponent&#45;&gt;AppModule -->
<g id="edge12" class="edge">
<title>UsersManagementComponent&#45;&gt;AppModule</title>
<path fill="none" stroke="black" d="M269,-84.84C269,-106.46 269,-139.8 269,-139.8 269,-139.8 1027.16,-139.8 1027.16,-139.8"/>
<polygon fill="black" stroke="black" points="1027.16,-143.3 1037.16,-139.8 1027.16,-136.3 1027.16,-143.3"/>
</g>
<!-- AppComponent  -->
<g id="node15" class="node">
<title>AppComponent </title>
<polygon fill="#80b1d3" stroke="black" points="1133.44,-214.8 1024.56,-214.8 1024.56,-178.8 1133.44,-178.8 1133.44,-214.8"/>
<text text-anchor="middle" x="1079" y="-192.6" font-family="Times,serif" font-size="14.00">AppComponent </text>
</g>
<!-- AppModule&#45;&gt;AppComponent  -->
<g id="edge14" class="edge">
<title>AppModule&#45;&gt;AppComponent </title>
<path fill="none" stroke="black" stroke-dasharray="1,5" d="M1079,-149.91C1079,-149.91 1079,-168.79 1079,-168.79"/>
<polygon fill="black" stroke="black" points="1075.5,-168.79 1079,-178.79 1082.5,-168.79 1075.5,-168.79"/>
</g>
<!-- AppRoutingModule -->
<g id="node14" class="node">
<title>AppRoutingModule</title>
<polygon fill="#8dd3c7" stroke="black" points="152.28,-84.8 149.28,-88.8 128.28,-88.8 125.28,-84.8 23.72,-84.8 23.72,-48.8 152.28,-48.8 152.28,-84.8"/>
<text text-anchor="middle" x="88" y="-62.6" font-family="Times,serif" font-size="14.00">AppRoutingModule</text>
</g>
<!-- AppRoutingModule&#45;&gt;AppModule -->
<g id="edge13" class="edge">
<title>AppRoutingModule&#45;&gt;AppModule</title>
<path fill="none" stroke="black" d="M88,-84.89C88,-107.93 88,-144.8 88,-144.8 88,-144.8 1027.05,-144.8 1027.05,-144.8"/>
<polygon fill="black" stroke="black" points="1027.05,-148.3 1037.05,-144.8 1027.05,-141.3 1027.05,-148.3"/>
</g>
</g>
</svg>
